<?xml version="1.0" encoding="UTF-8"?>
<!DOCTYPE svg PUBLIC "-//W3C//DTD SVG 1.1//EN" "http://www.w3.org/Graphics/SVG/1.1/DTD/svg11.dtd">
<!-- Creator: CorelDRAW 2020 (64-Bit Evaluation Version) -->
<svg xmlns="http://www.w3.org/2000/svg" xml:space="preserve" width="84.6666mm" height="84.6666mm" version="1.1" style="shape-rendering:geometricPrecision; text-rendering:geometricPrecision; image-rendering:optimizeQuality; fill-rule:evenodd; clip-rule:evenodd"
viewBox="0 0 8466.66 8466.66"
 xmlns:xlink="http://www.w3.org/1999/xlink"
 xmlns:xodm="http://www.corel.com/coreldraw/odm/2003">
 <defs>
  <style type="text/css">
   <![CDATA[
    .fil0 {fill:#FFE761}
   ]]>
  </style>
 </defs>
 <g id="Layer_x0020_1">
  <metadata id="CorelCorpID_0Corel-Layer"/>
  <g id="_2698327959088">
   <path class="fil0" d="M3979.82 1100.58c580.09,-70.68 1420.77,132.11 1875.83,445.03 227.07,156.16 466.81,317.66 649.18,526.28 40.03,45.82 47.63,47.93 98.08,96.89l396.96 582.24c410.3,739.72 497.46,1794.33 174.05,2592.59 -237.75,586.92 -513.27,969.76 -991.37,1358.72 -1552.22,1262.96 -3897.48,667.85 -4723.84,-986.13 -502.74,-1006.36 -510.59,-2168.62 93.11,-3112.53 169.63,-265.2 308.98,-458.26 525.58,-651.38 579.84,-516.95 1076.16,-751.05 1902.42,-851.71zm-106.04 -271.58c-695.63,76.05 -1304.88,343.87 -1803.46,746.63 -896.62,724.28 -1345.94,1858.89 -1241.23,3032.78 44.24,495.64 207.31,907.31 407.79,1285.51 93.72,176.9 212.34,369.56 337.88,512.32l211.06 224.22c78.01,81.03 136.78,123.2 221.52,212.42 74.83,78.82 137.5,106.68 230.1,183.8 192.52,160.27 602.62,355.19 842.78,441.53 910.43,327.39 1950.56,247.18 2794.21,-224.32 373.15,-208.56 459.84,-289.34 734.64,-549.28l400.45 -447.71c35.21,-49.48 57.54,-80.32 86.13,-132.16 136.22,-246.92 233.58,-356.17 355.53,-711.62 166.61,-485.54 235.54,-954.05 183.5,-1520.33 -161.02,-1750.31 -1768.66,-3271.67 -3760.9,-3053.79z"/>
   <path class="fil0" d="M4565.97 264.94c57.17,-151.62 38.54,-139.57 -51.38,-247.07 -883.69,-103.38 -1954.77,259.74 -2521.88,630.32 -1397.31,913.02 -2240.81,2560.37 -1927.46,4286.79 117.89,649.42 332.9,1181.72 682.44,1690.38 103.11,150.13 233.63,343.5 354.51,451.31l844.68 721.45c1290.4,838.89 2985.97,892.69 4333.49,136.54 1249.24,-701.06 2010.1,-1883.66 2162.34,-3386.69 17.3,-171.24 79.91,-648.86 -107.94,-674.85 -237.74,-32.9 -156.91,409.76 -167.99,610.19 -25.67,463.3 -143.15,907.41 -304.52,1288.34 -306.68,723.76 -795.77,1314.08 -1430.78,1746.24 -1445.05,983.4 -3434.98,857.68 -4731.74,-256.39 -430.94,-370.17 -781.39,-802.74 -1025.3,-1325.26 -641.89,-1375.29 -472.1,-2843.52 381.2,-4027.04l549.92 -625.59 461.01 -344.22c329.31,-203.73 644.56,-376.76 1087.61,-500.64 212.34,-59.41 422.72,-96.79 652.36,-128.4 223.01,-30.68 605.4,4.69 759.43,-45.41z"/>
   <path class="fil0" d="M3047.93 3668.93c-231.99,-91.28 -270.33,73.47 -307.75,318.79 -155.31,1016.86 648.05,1826.4 1599.9,1759.53 1307.8,-91.9 1744.48,-1596.17 1121.12,-2389.44 -323.56,-411.77 -803.56,-695.45 -1388.07,-626.2 -230.1,27.28 -415.08,39.02 -309.35,296.03 154.81,43.04 303.19,-26.36 489.3,-24.09 721.91,8.95 1313.39,666.56 1189.75,1453.09 -188.93,1201.43 -1992.03,1411.28 -2389.76,140.24 -150.75,-481.89 70.06,-682.42 -5.14,-927.95z"/>
   <path class="fil0" d="M4141.96 3731.95c299.69,-54.42 553.25,172.47 595.18,414.65 117.44,678.15 -904.27,839.4 -1014.52,175.82 -50.3,-302.73 181.7,-547.33 419.34,-590.47zm-111.69 -260.82c-713.13,198.62 -768.77,1081.06 -241.95,1433.11 614.63,410.8 1406.45,-192.81 1210.53,-865.71 -106.09,-364.3 -465.94,-707.44 -968.58,-567.4z"/>
   <path class="fil0" d="M6319.33 751.52c-0.61,176.8 17.76,144.16 216.65,286.05 111.28,79.39 160.7,176.69 349.02,154.35 124.57,-199.45 29,-211.04 -106.81,-331.72 -92.49,-82.16 -217.52,-192.19 -381.1,-191l-77.76 82.32z"/>
   <path class="fil0" d="M7598.03 2148.44l116.97 3.81c107.79,-125.36 126.06,-158.05 -83.97,-426.49 -67.65,-86.5 -152.64,-260.05 -293.18,-186.48 -163.47,85.57 -29.3,231.37 33.68,317.81 73.03,100.24 140.12,210.27 226.5,291.35z"/>
   <path class="fil0" d="M5167.67 227l-7.09 121.71c90.44,84.69 192.07,108.84 345.84,152.91 127.04,36.4 321.61,124.69 336.09,-73.88 11.03,-150.85 -177.95,-171.55 -308.47,-215.88 -157.42,-53.44 -256.84,-108.53 -366.37,15.14z"/>
   <path class="fil0" d="M8299.71 3253.5c26.95,-134.17 -40.34,-294.9 -88.53,-430.61 -24.69,-69.51 -41.22,-129.9 -92.65,-168.77 -78.94,-59.67 -167.73,-13.9 -197.66,39.75 -50.25,90.2 61.24,323.27 88.49,418.1 50.35,175.46 118.56,264.06 290.35,141.53z"/>
  </g>
 </g>
</svg>
